<svg width="80" height="80" viewBox="0 0 80 80" fill="none" xmlns="http://www.w3.org/2000/svg">
<path d="M55 68H67L71 64V16L67 12L55 12M25 12L13 12L9 16L9 64L13 68H25" stroke="black" style="stroke:black;stroke-opacity:1;" stroke-width="3"/>
<path d="M37.963 48.7343C42.8643 43.833 50.5136 36.1837 50.5136 36.1837C51.8999 34.7974 51.5253 32.1752 49.6769 30.3268C47.8285 28.4784 45.2063 28.1038 43.82 29.4901C43.82 29.4901 36.1707 37.1394 31.2694 42.0407M37.963 48.7343C36.393 50.3043 33.1863 50.8924 31.0045 51.1126C29.7682 51.2374 28.7663 50.2355 28.8911 48.9992C29.1114 46.8174 29.6994 43.6107 31.2694 42.0407M37.963 48.7343C37.4248 46.966 36.7599 45.8578 35.4529 44.5508C34.1459 43.2438 33.0377 42.5789 31.2694 42.0407" stroke="#0D70FF" style="stroke:#0D70FF;stroke:color(display-p3 0.0500 0.4400 1.0000);stroke-opacity:1;" stroke-width="3" stroke-linejoin="round"/>
</svg>
