<svg width="80" height="80" viewBox="0 0 80 80" fill="none" xmlns="http://www.w3.org/2000/svg">
<path d="M50.8 10H29.2C22.4794 10 19.1191 10 16.5521 11.3079C14.2942 12.4584 12.4584 14.2942 11.3079 16.5521C10 19.1191 10 22.4794 10 29.2V50.8C10 57.5206 10 60.8809 11.3079 63.4479C12.4584 65.7058 14.2942 67.5416 16.5521 68.6921C19.1191 70 22.4794 70 29.2 70H50.8C57.5206 70 60.8809 70 63.4479 68.6921C65.7058 67.5416 67.5416 65.7058 68.6921 63.4479C70 60.8809 70 57.5206 70 50.8V29.2C70 22.4794 70 19.1191 68.6921 16.5521C67.5416 14.2942 65.7058 12.4584 63.4479 11.3079C60.8809 10 57.5206 10 50.8 10Z" stroke="black" style="stroke:black;stroke-opacity:1;" stroke-width="3"/>
<path d="M25.2002 35C26.8802 35 27.7206 35.0002 28.3623 35.3271C28.9265 35.6147 29.3853 36.0735 29.6729 36.6377C29.9998 37.2794 30 38.1198 30 39.7998V40.2002C30 41.8802 29.9998 42.7206 29.6729 43.3623C29.3853 43.9265 28.9265 44.3853 28.3623 44.6729C27.7206 44.9998 26.8802 45 25.2002 45H24.7998C23.1198 45 22.2794 44.9998 21.6377 44.6729C21.0735 44.3853 20.6147 43.9265 20.3271 43.3623C20.0002 42.7206 20 41.8802 20 40.2002V39.7998C20 38.1198 20.0002 37.2794 20.3271 36.6377C20.6147 36.0735 21.0735 35.6147 21.6377 35.3271C22.2794 35.0002 23.1198 35 24.7998 35H25.2002ZM25.2002 20C26.8802 20 27.7206 20.0002 28.3623 20.3271C28.9265 20.6147 29.3853 21.0735 29.6729 21.6377C29.9998 22.2794 30 23.1198 30 24.7998V25.2002C30 26.8802 29.9998 27.7206 29.6729 28.3623C29.3853 28.9265 28.9265 29.3853 28.3623 29.6729C27.7206 29.9998 26.8802 30 25.2002 30H24.7998C23.1198 30 22.2794 29.9998 21.6377 29.6729C21.0735 29.3853 20.6147 28.9265 20.3271 28.3623C20.0002 27.7206 20 26.8802 20 25.2002V24.7998C20 23.1198 20.0002 22.2794 20.3271 21.6377C20.6147 21.0735 21.0735 20.6147 21.6377 20.3271C22.2794 20.0002 23.1198 20 24.7998 20H25.2002ZM40.2002 20C41.8802 20 42.7206 20.0002 43.3623 20.3271C43.9265 20.6147 44.3853 21.0735 44.6729 21.6377C44.9998 22.2794 45 23.1198 45 24.7998V25.2002C45 26.8802 44.9998 27.7206 44.6729 28.3623C44.3853 28.9265 43.9265 29.3853 43.3623 29.6729C42.7206 29.9998 41.8802 30 40.2002 30H39.7998C38.1198 30 37.2794 29.9998 36.6377 29.6729C36.0735 29.3853 35.6147 28.9265 35.3271 28.3623C35.0002 27.7206 35 26.8802 35 25.2002V24.7998C35 23.1198 35.0002 22.2794 35.3271 21.6377C35.6147 21.0735 36.0735 20.6147 36.6377 20.3271C37.2794 20.0002 38.1198 20 39.7998 20H40.2002ZM55.2002 20C56.8802 20 57.7206 20.0002 58.3623 20.3271C58.9265 20.6147 59.3853 21.0735 59.6729 21.6377C59.9998 22.2794 60 23.1198 60 24.7998V25.2002C60 26.8802 59.9998 27.7206 59.6729 28.3623C59.3853 28.9265 58.9265 29.3853 58.3623 29.6729C57.7206 29.9998 56.8802 30 55.2002 30H54.7998C53.1198 30 52.2794 29.9998 51.6377 29.6729C51.0735 29.3853 50.6147 28.9265 50.3271 28.3623C50.0002 27.7206 50 26.8802 50 25.2002V24.7998C50 23.1198 50.0002 22.2794 50.3271 21.6377C50.6147 21.0735 51.0735 20.6147 51.6377 20.3271C52.2794 20.0002 53.1198 20 54.7998 20H55.2002Z" fill="#0D70FF" style="fill:#0D70FF;fill:color(display-p3 0.0500 0.4400 1.0000);fill-opacity:1;"/>
</svg>
