<svg width="80" height="80" viewBox="0 0 80 80" fill="none" xmlns="http://www.w3.org/2000/svg">
<path d="M50.8 10H29.2C22.4794 10 19.1191 10 16.5521 11.3079C14.2942 12.4584 12.4584 14.2942 11.3079 16.5521C10 19.1191 10 22.4794 10 29.2V50.8C10 57.5206 10 60.8809 11.3079 63.4479C12.4584 65.7058 14.2942 67.5416 16.5521 68.6921C19.1191 70 22.4794 70 29.2 70H50.8C57.5206 70 60.8809 70 63.4479 68.6921C65.7058 67.5416 67.5416 65.7058 68.6921 63.4479C70 60.8809 70 57.5206 70 50.8V29.2C70 22.4794 70 19.1191 68.6921 16.5521C67.5416 14.2942 65.7058 12.4584 63.4479 11.3079C60.8809 10 57.5206 10 50.8 10Z" stroke="#555" style="stroke:#555;stroke-opacity:1;" stroke-width="3"/>
<path d="M53 51.5V32H52.5L42 45V45.5H58M39.5 32.5H27V41.5M27 51.5V41.5M27 41.5H38" stroke="#0D70FF" style="stroke:#0D70FF;stroke:color(display-p3 0.0500 0.4400 1.0000);stroke-opacity:1;" stroke-width="3"/>
</svg>
